<?xml version="1.0" encoding="UTF-8"?>
<svg width="219px" height="58px" viewBox="0 0 219 58" version="1.1" xmlns="http://www.w3.org/2000/svg" xmlns:xlink="http://www.w3.org/1999/xlink">
    <!-- Generator: Sketch 60.1 (88133) - https://sketch.com -->
    <title>Logo Tecnoglass</title>
    <desc>Created with Sketch.</desc>
    <g id="Page-1" stroke="none" stroke-width="1" fill="none" fill-rule="evenodd">
        <g id="1_Home" transform="translate(-48.000000, -26.000000)">
            <g id="Logo-Tecnoglass" transform="translate(48.000000, 26.000000)">
                <g>
                    <polygon id="Shape" fill="#FFFFFF" fill-rule="nonzero" points="0 26.3597907 5.06940803 26.3597907 5.06940803 38.3888889 7.75883124 38.3888889 7.75883124 26.3597907 13 26.3597907 13 23.3888889 0 23.3888889"></polygon>
                    <polygon id="Rectangle-path" fill="#FFFFFF" fill-rule="nonzero" points="15 23.3888889 28 23.3888889 28 26.3888889 15 26.3888889"></polygon>
                    <polygon id="Shape" fill="#FFFFFF" fill-rule="nonzero" points="30 24.8740605 30 26.3596984 30 35.4208772 30 38.3888889 32.6869478 38.3888889 43 38.3888889 43 35.4208772 32.6869478 35.4208772 32.6869478 26.3596984 43 26.3596984 43 23.3888889 30 23.3888889"></polygon>
                    <path d="M62,24.1233144 L62,26.3596984 L62,35.4208772 L62,37.635345 L62,38.3888889 L75,38.3888889 L75,37.635345 L75,35.4208772 L75,26.3596984 L75,24.1233144 L75,23.3888889 L62,23.3888889 L62,24.1233144 Z M72.3044243,35.4208772 L64.6915411,35.4208772 L64.6915411,26.3615636 L72.3044243,26.3615636 L72.3044243,35.4208772 Z" id="Shape" fill="#FFFFFF" fill-rule="nonzero"></path>
                    <polygon id="Rectangle-path" fill="#FFFFFF" fill-rule="nonzero" points="15 29.3888889 28 29.3888889 28 32.3888889 15 32.3888889"></polygon>
                    <polygon id="Rectangle-path" fill="#FFFFFF" fill-rule="nonzero" points="15 35.3888889 28 35.3888889 28 38.3888889 15 38.3888889"></polygon>
                    <polygon id="Shape" fill="#FFFFFF" fill-rule="nonzero" points="125 23.3888889 125 26.3596984 125 29.3911271 125 31.6223818 125 32.3624029 135.312263 32.3624029 135.312263 35.4194783 125 35.4194783 125 38.3888889 135.312263 38.3888889 138 38.3888889 138 35.4194783 138 32.3624029 138 30.1563286 138 29.3911271 137.9224 29.3911271 135.39076 29.3911271 127.53164 29.3911271 127.53164 26.3596984 138 26.3596984 138 23.3888889 127.53164 23.3888889"></polygon>
                    <polygon id="Shape" fill="#FFFFFF" fill-rule="nonzero" points="154 26.3597907 154 23.3888889 143.529024 23.3888889 141 23.3888889 141 26.3597907 141 29.3908474 141 31.6221714 141 32.3622156 151.387976 32.3622156 151.387976 35.419386 141 35.419386 141 38.3888889 154 38.3888889 154 35.419386 153.920589 35.419386 153.920589 32.3622156 154 32.3622156 154 29.3908474 153.920589 29.3908474 151.387976 29.3908474 143.529024 29.3908474 143.529024 26.3597907"></polygon>
                    <polygon id="Shape" fill="#FFFFFF" fill-rule="nonzero" points="96.6932896 23.3888889 94 23.3888889 94 35.4194783 94 37.635345 94 38.3888889 107 38.3888889 107 35.4194783 96.6932896 35.4194783"></polygon>
                    <path d="M109,23.3888889 L109,26.3600723 L119.31313,26.3600723 L119.31313,29.4044629 L109,29.4044629 L109,30.0749842 L109,32.3761126 L109,35.4209695 L109,37.6353684 L109,38.3888889 L122,38.3888889 L122,37.6353684 L122,35.4209695 L122,32.3761126 L122,29.4049292 L122,26.3605386 L122,23.3893552 L119.313579,23.3893552 L109,23.3893552 L109,23.3888889 Z M119.313579,35.4205032 L111.522643,35.4205032 L111.522643,32.3756463 L119.313579,32.3756463 L119.313579,35.4205032 Z" id="Shape" fill="#FFFFFF" fill-rule="nonzero"></path>
                    <polygon id="Shape" fill="#FFFFFF" fill-rule="nonzero" points="78 24.1228709 78 26.3597907 78 35.419386 78 37.6339226 78 38.3888889 91 38.3888889 91 37.6339226 91 35.419386 91 29.3908474 88.312789 29.3908474 88.312789 35.419386 80.6907999 35.419386 80.6907999 26.3597907 91 26.3597907 91 23.3888889 78 23.3888889"></polygon>
                    <polygon id="Shape" fill="#FFFFFF" fill-rule="nonzero" points="46 24.8740605 46 26.3596984 46 38.3888889 48.6903357 38.3888889 48.6903357 26.3596984 56.3092157 26.3596984 56.3092157 38.3888889 59 38.3888889 59 26.3596984 59 24.8740605 59 23.3888889 46 23.3888889"></polygon>
                    <polygon id="Rectangle-path" fill="#00A2E2" fill-rule="nonzero" points="162 0.388888889 219 0.388888889 219 57.3888889 162 57.3888889"></polygon>
                    <path d="M189.333002,10.3898992 C189.296435,10.3866956 189.264033,10.3912722 189.227003,10.4013407 L179.439861,13.2543873 C179.432918,13.2589639 179.428752,13.2630828 179.424123,13.2630828 C179.403757,13.26949 179.390333,13.2772702 179.372281,13.2891694 C179.355154,13.2983226 179.337102,13.3115947 179.316735,13.3225785 C179.305163,13.3372236 179.292202,13.3482074 179.285259,13.3628525 C179.26767,13.3793282 179.256098,13.3971769 179.247303,13.4182292 C179.235268,13.4337896 179.235268,13.4502654 179.22277,13.4667411 C179.218142,13.4877934 179.212587,13.5115917 179.212587,13.53539 C179.20981,13.5463738 179.202867,13.554154 179.202867,13.5651378 L179.202867,17.8561492 C170.60579,20.5471845 165.710831,24.6784729 165.027157,29.8271375 C165.02438,29.85597 164.969297,30.2211819 165.02438,30.7877638 L165.02438,39.8668044 C165.02438,39.8814495 165.02438,39.8979253 165.027157,39.9098244 C165.05169,40.1084484 165.749713,44.8388126 171.810205,47.3623447 C171.818074,47.3623447 171.82224,47.3623447 171.825017,47.3623447 C171.859733,47.3756168 171.897227,47.3861429 171.937497,47.3861429 L171.938886,47.3888889 C171.975916,47.3888889 172.014798,47.3788204 172.048126,47.3637176 C172.055532,47.3637176 172.057383,47.3637176 172.059698,47.3623447 L186.806601,41.5299375 C186.928339,41.480968 187.009806,41.3642649 187.009806,41.2320014 L187.009806,32.1126868 C187.009806,32.0083406 186.958889,31.9071979 186.874182,31.845414 C186.78392,31.7895795 186.673292,31.7744768 186.571458,31.8088012 L186.520079,31.8284806 C186.479808,31.8060553 186.434909,31.7909525 186.390935,31.7895795 C184.167721,31.6655539 182.553194,31.3424466 181.38581,30.9323841 C181.857485,30.5113378 183.301672,29.3429342 185.930832,28.211601 C188.964087,26.9095609 194.229813,25.3887598 202.110813,25.5516864 C202.183023,25.5516864 202.255695,25.5223963 202.316332,25.4802916 C204.579354,28.3251004 205.611114,31.2728825 205.744424,31.6660116 L205.739332,34.030736 L215.788927,30.0550517 C215.918533,30.0069975 216,29.8889214 216,29.755285 L216,21.625887 C215.987965,21.2117055 215.568596,11.5061296 189.333002,10.3898992 L189.333002,10.3898992 Z M215.34271,26.6930882 C214.931209,25.6894418 214.157736,24.2624609 212.727436,22.6977245 L215.34271,21.7604387 L215.34271,26.6930882 Z M215.253374,21.1064439 L212.232617,22.1837734 C212.084033,22.0309152 211.930819,21.8762265 211.766034,21.72108 C205.954109,16.2666993 196.469691,14.3619222 189.481587,13.7285221 L189.481587,11.042521 C202.740331,11.6296976 209.07531,14.4841172 212.054871,16.7856847 C214.357238,18.5623172 215.043226,20.2771657 215.253374,21.1064439 L215.253374,21.1064439 Z M206.377644,23.872993 C205.599542,21.7695919 204.164613,20.0899831 202.354751,18.7339393 C202.354751,18.7339393 202.351974,18.7275321 202.348271,18.7261591 C202.336236,18.712887 202.322812,18.7083104 202.306149,18.6986996 C200.070437,17.0369395 197.270474,15.879062 194.39969,15.0731244 L194.395061,15.0731244 C192.980499,14.6754187 191.547885,14.3628375 190.159706,14.1175323 C197.005706,14.8104281 205.967532,16.7408341 211.520244,21.9352645 C211.653554,22.0606631 211.775291,22.184231 211.896566,22.3068837 L206.397548,24.2684104 L206.397548,23.9842041 C206.398011,23.9485067 206.392456,23.9109787 206.377644,23.872993 L206.377644,23.872993 Z M180.794249,17.367827 L180.84424,17.367827 C180.794249,17.3838451 180.743332,17.3975748 180.695193,17.4135929 L180.794249,17.367827 Z M181.518194,17.067145 L187.853174,14.4191296 C189.292269,14.6099734 190.826254,14.8717544 192.377366,15.2250672 C190.123139,15.4653382 186.12663,15.9980534 181.904699,17.085909 C181.762595,17.0772135 181.635765,17.0717216 181.518194,17.067145 L181.518194,17.067145 Z M194.258975,15.7065246 C194.333961,15.7294075 194.410336,15.7518328 194.489952,15.7728851 L194.489952,19.2204309 C194.114093,19.2680274 193.740086,19.3179123 193.354044,19.3751197 C189.839856,18.0955049 186.413616,17.5183968 184.024228,17.2589041 C189.272828,16.0790591 193.730828,15.7431373 194.258975,15.7065246 L194.258975,15.7065246 Z M201.79374,19.2849608 L201.79374,24.2816825 C199.643198,22.3297666 197.136239,20.9032433 194.609375,19.8634419 C198.014785,19.4259198 200.851316,19.3133357 201.79374,19.2849608 L201.79374,19.2849608 Z M194.816282,19.1764956 L194.816282,15.8685359 C197.327871,16.6200121 199.438142,17.5513483 201.137839,18.6630022 C199.883433,18.711514 197.541259,18.8433198 194.816282,19.1764956 L194.816282,19.1764956 Z M189.157571,11.0956095 L189.157571,13.9518597 C186.199302,13.4905394 183.512745,13.3225785 181.715381,13.2653711 L189.157571,11.0956095 Z M187.210233,14.336751 L179.860157,17.4108469 L179.860157,13.8854991 L180.072619,13.8854991 C181.109008,13.8854991 183.866849,13.9289768 187.210233,14.336751 L187.210233,14.336751 Z M165.677967,29.9218729 C166.595395,22.9393685 175.429929,19.3192853 183.049402,17.4863607 C185.288354,17.6758315 188.909004,18.1723916 192.688884,19.475347 C192.194528,19.5536067 191.700172,19.6346124 191.197484,19.7279748 C188.821519,20.160005 186.75337,20.6876859 184.98563,21.3146788 C173.218287,24.1677254 168.325642,29.671991 166.385248,32.9758319 C165.913573,32.1428923 165.73953,31.383636 165.677504,30.8298685 L165.677504,30.6939437 C165.677504,30.6605346 165.665932,30.6266679 165.661303,30.5973777 C165.635845,30.2129441 165.666395,29.9626045 165.677967,29.9218729 L165.677967,29.9218729 Z M186.358996,32.5749225 L186.358996,41.0127828 L185.776693,41.240697 C184.295476,41.1679292 179.472726,40.6828106 178.121578,37.4146672 L178.121578,35.5529101 L186.358996,32.5749225 Z M177.808208,37.5043683 C178.493734,39.2041141 180.175841,40.4503198 182.657805,41.1015686 C183.57616,41.340009 184.433877,41.4557967 185.078669,41.5180384 L172.263365,46.5834089 L172.263365,37.6714139 L177.796173,35.6728167 L177.796173,37.4489916 C177.796636,37.4682133 177.802191,37.4888079 177.808208,37.5043683 L177.808208,37.5043683 Z M178.162774,29.4683328 C178.627043,30.1818232 179.366726,30.7657962 180.372102,31.2248283 C179.202404,32.4449473 178.493734,33.6989332 178.121578,34.4705464 L178.121578,29.4015145 C178.13963,29.4234822 178.148888,29.4468228 178.162774,29.4683328 L178.162774,29.4683328 Z M177.785527,26.78462 C177.767475,26.8313012 177.441144,27.6770552 177.796173,28.7191449 L177.796173,34.9835822 L171.943977,37.103459 C168.991727,36.0270449 167.408676,34.593199 166.573177,33.288413 C168.276577,30.2934921 172.535076,25.2715991 182.667526,22.2702709 C180.130479,23.5013738 178.494197,25.0070722 177.785527,26.78462 L177.785527,26.78462 Z M166.031144,33.6170122 C165.893669,33.8751319 165.777023,34.1199795 165.677967,34.3373676 L165.677967,33.0042067 C165.777023,33.2037461 165.893669,33.406489 166.031144,33.6170122 L166.031144,33.6170122 Z M166.704635,42.3953708 C165.901538,41.078228 165.701111,39.9967796 165.677967,39.8407179 L165.677967,35.1995973 C165.789058,34.8879314 165.96773,34.4485787 166.230183,33.9204402 C167.132799,35.1822062 168.745474,36.6073566 171.611629,37.6682103 L171.611629,46.5641872 C168.922758,45.334915 167.463759,43.6337962 166.704635,42.3953708 L166.704635,42.3953708 Z M185.107831,32.3360245 L178.332652,34.7922807 C178.664074,34.0591109 179.394499,32.687049 180.695193,31.3630413 C181.851005,31.8376337 183.321576,32.1616564 185.107831,32.3360245 L185.107831,32.3360245 Z M180.739166,30.6495508 C180.733612,30.6541274 180.728057,30.6614499 180.721577,30.6673995 C179.650009,30.1896034 179.05243,29.631717 178.720082,29.1319533 C178.011875,28.0587428 178.376625,27.0601307 178.393289,27.0207721 C180.114278,22.7087083 187.805034,20.7943204 193.969211,19.9476512 C196.717795,21.0272689 199.478876,22.5572232 201.79374,24.7274425 L201.79374,24.8976916 C186.641353,24.6798459 180.971532,30.4033302 180.739166,30.6495508 L180.739166,30.6495508 Z M202.445476,24.615316 L202.445476,19.6213402 C204.009085,20.8991244 205.113518,22.3723289 205.744887,24.0418692 L205.744887,29.8921251 C205.143142,28.5456921 204.080369,26.5420607 202.445476,24.615316 L202.445476,24.615316 Z M206.398011,33.0614141 L206.398011,24.9594756 L212.391385,22.8167159 C214.336871,24.9155403 215.082108,26.804757 215.34271,27.6788858 L215.34271,29.5346933 L206.398011,33.0614141 Z" id="Shape" fill="#FFFFFF" fill-rule="nonzero"></path>
                </g>
            </g>
        </g>
    </g>
</svg>